<?xml version="1.0" encoding="UTF-8" standalone="no"?>
<svg
   id="Layer_1"
   viewBox="0 0 1920 646"
   version="1.1"
   sodipodi:docname="Amadeus_Organization_logo_2024.svg"
   inkscape:version="1.1 (c68e22c387, 2021-05-23)"
   xmlns:inkscape="http://www.inkscape.org/namespaces/inkscape"
   xmlns:sodipodi="http://sodipodi.sourceforge.net/DTD/sodipodi-0.dtd"
   xmlns="http://www.w3.org/2000/svg"
   xmlns:svg="http://www.w3.org/2000/svg">
  <sodipodi:namedview
     id="namedview21"
     pagecolor="#ffffff"
     bordercolor="#666666"
     borderopacity="1.0"
     inkscape:pageshadow="2"
     inkscape:pageopacity="0.0"
     inkscape:pagecheckerboard="0"
     showgrid="false"
     inkscape:zoom="0.56614583"
     inkscape:cx="960"
     inkscape:cy="322.35511"
     inkscape:window-width="2048"
     inkscape:window-height="1081"
     inkscape:window-x="-8"
     inkscape:window-y="-8"
     inkscape:window-maximized="1"
     inkscape:current-layer="Layer_1" />
  <defs
     id="defs4">
    <style
       id="style2">.cls-1{fill:#000835;}</style>
  </defs>
  <path
     class="cls-1"
     d="m1648.297,304.2114c-27.093-9.3799-39.0689-15.626-39.0689-29.6889,0-8.8566,5.7298-22.4029,32.8157-22.4029,25.5224,0,52.6083,11.4596,52.6083,11.4596v-39.0689c-11.4597-4.6902-31.7758-9.3729-54.6951-9.3729-39.0691,0-76.5746,20.8325-76.5746,61.9884s37.5056,52.6083,63.0353,60.9484c23.9591,7.8094,40.1087,15.626,40.1087,31.2523,0,13.5465-9.38,23.9592-40.1087,23.9592-26.046,0-57.3055-10.4126-57.3055-10.4126v39.0617s30.2126,8.3401,59.3851,8.3401c38.5527,0,83.8678-13.5465,83.8678-64.0751,0-34.379-28.1257-49.4888-64.068-61.9884Z"
     id="path6" />
  <path
     class="cls-1"
     d="m666.3826,427.6644v-212.527h-58.8631l-57.821,158.3555-57.8218-158.3555h-58.863v212.527h40.1102v-160.435l58.3424,160.435h33.859l60.947-160.435v160.435h40.1102Z"
     id="path8" />
  <path
     class="cls-1"
     d="m807.0164,215.1374h-77.6137v41.1487c36.9857-1.5635,47.4034-2.0797,63.5509-2.0797,25.5225,0,40.6323,9.3729,40.6323,34.379v16.1495h-40.6323c-68.2387,0-89.0748,27.6093-89.0748,63.5516,0,46.3551,34.3804,61.9884,68.76,61.9884s55.2172-16.1498,61.9869-20.8397v18.2293h44.7987v-145.3324c0-48.9653-26.5623-67.1946-72.4081-67.1946Zm26.5695,167.2119c-11.4597,4.1667-32.2993,11.4598-52.0919,11.4598-18.7528,0-33.8583-8.3331-33.8583-28.6491,0-18.2365,11.4597-27.6093,36.4615-28.6493l49.4888-2.0867v47.9253Z"
     id="path10" />
  <path
     class="cls-1"
     d="m1198.2295,251.5959h107.3034v-36.4585h-153.1492v212.527h153.1492v-36.4585h-107.3034v-51.5757h91.1537v-35.9422h-91.1537v-52.092Z"
     id="path12" />
  <path
     class="cls-1"
     d="m1526.4073,427.6644v-212.527h-46.8785v161.9985c-11.4597,5.2134-27.6093,13.5465-51.0521,13.5465-29.1726,0-38.022-16.1498-38.022-50.5285v-125.0165h-46.8856v130.7461c0,54.6952,17.713,84.3913,73.4478,84.3913,31.2595,0,46.8857-11.4596,63.5516-20.8397v18.2293h45.8387Z"
     id="path14" />
  <path
     class="cls-1"
     d="m1010.1779,215.1374h-84.3841v212.527h84.3841c71.3682,0,107.3106-32.8155,107.3106-108.3432,0-66.1618-39.0689-104.1838-107.3106-104.1838Zm-2.0868,175.545h-35.4188v-138.5628h35.4188c35.426,0,61.472,17.1893,61.472,67.2016,0,47.9183-17.1895,71.3612-61.472,71.3612Z"
     id="path16" />
  <path
     class="cls-1"
     d="m309.0293,215.1374h-77.6173v41.1487c36.9843-1.5635,47.4027-2.0797,63.5516-2.0797,25.5239,0,40.6309,9.3729,40.6309,34.379v16.1495h-40.6309c-68.2401,0-89.0769,27.6093-89.0769,63.5516,0,46.3551,34.3804,61.9884,68.7608,61.9884s55.2179-16.1498,61.989-20.8397v18.2293h44.7988v-145.3324c0-48.9653-26.5659-67.1946-72.4059-67.1946Zm26.5652,167.2119c-11.4597,4.1667-32.2964,11.4598-52.0912,11.4598-18.7528,0-33.8598-8.3331-33.8598-28.6491,0-18.2365,11.4597-27.6093,36.4636-28.6493l49.4873-2.0867v47.9253Z"
     id="path18" />
  <path
     style="fill:#ffffff;stroke-width:15.5187;stroke-linecap:square;paint-order:markers stroke fill"
     d="m 250.86159,426.49553 c -26.98987,-7.55724 -41.10082,-24.98373 -43.63879,-53.89227 -1.63402,-18.6123 5.0917,-36.66287 17.93963,-48.14653 6.78649,-6.06586 25.56528,-13.8616 39.27997,-16.30651 7.88696,-1.406 26.07154,-2.47828 42.62783,-2.51362 l 28.87335,-0.0616 -0.61208,-16.65484 c -0.72075,-19.61148 -3.18031,-24.27398 -16.26494,-30.8328 -8.10154,-4.06099 -9.70198,-4.20237 -44.48038,-3.9294 -19.84205,0.15573 -37.28116,0.74544 -38.75358,1.31046 -2.29796,0.88181 -2.67713,-1.90011 -2.67713,-19.64168 v -20.669 l 48.13248,0.80707 c 49.01841,0.82192 57.95616,1.93092 71.09475,8.82147 8.01712,4.20459 17.89321,15.27627 22.43354,25.14934 4.03252,8.76884 4.06501,9.43152 4.56792,93.17388 l 0.50653,84.34222 H 358.71794 337.5452 l -0.52973,-9.61653 -0.52973,-9.61653 -9.49406,5.9963 c -15.03097,9.49331 -28.70542,13.49841 -48.79481,14.29147 -12.36768,0.48825 -20.56304,-0.11463 -27.33528,-2.01088 z m 70.61035,-38.25662 13.24747,-4.20814 0.49123,-25.28555 0.49123,-25.28556 -27.86934,1.23621 c -40.39748,1.79193 -48.27299,4.00901 -55.32516,15.57489 -4.45092,7.29973 -4.56112,21.24985 -0.23316,29.51761 1.97983,3.7821 6.2354,7.73685 11.03956,10.2592 7.13056,3.74378 9.44811,4.02966 26.36424,3.25205 12.67075,-0.58247 22.7434,-2.18575 31.79393,-5.06071 z"
     id="path912" />
  <path
     style="fill:#ffffff;stroke-width:15.5187;stroke-linecap:square;paint-order:markers stroke fill"
     d="M 434.51702,321.47194 V 215.49218 h 28.13436 28.13436 l 3.80237,10.15639 c 2.0913,5.58602 14.94426,40.75805 28.56214,78.16008 13.61787,37.40202 25.33179,68.61424 26.03093,69.36048 0.69913,0.74624 14.31665,-34.42579 30.26114,-78.16007 l 28.98998,-79.51688 h 28.73694 28.73692 V 321.47194 427.4517 h -19.42962 -19.42962 v -80.72125 c 0,-44.39669 -0.65814,-79.96614 -1.46254,-79.04324 -0.80439,0.92291 -14.91294,37.24667 -31.35234,80.71948 l -29.88981,79.04146 -15.95639,0.002 -15.95639,0.002 -29.08501,-80.34043 c -15.99676,-44.18723 -29.68115,-80.35282 -30.40976,-80.36798 -0.72861,-0.0152 -1.32474,36.13803 -1.32474,80.34043 v 80.36798 h -18.54646 -18.54646 z"
     id="path951" />
  <path
     style="fill:#ffffff;stroke-width:15.5187;stroke-linecap:square;paint-order:markers stroke fill"
     d="m 748.96647,426.49553 c -18.75337,-5.25099 -32.09089,-16.21193 -39.56418,-32.51434 -5.58409,-12.18126 -5.26491,-40.0259 0.59619,-52.01084 5.75902,-11.77618 14.41117,-19.95788 27.66369,-26.15948 15.73125,-7.36154 33.9198,-10.10257 67.51293,-10.17427 l 28.87336,-0.0616 -0.61209,-16.65484 c -0.72079,-19.61279 -3.18013,-24.27394 -16.26925,-30.83488 -8.09594,-4.0581 -9.72791,-4.20404 -43.93829,-3.92922 -19.54153,0.15698 -37.37612,0.74875 -39.63243,1.31505 l -4.10238,1.02963 v -20.66936 -20.66937 l 49.01564,0.74037 c 44.44487,0.67133 50.11152,1.1002 60.7676,4.59915 14.86621,4.88134 27.58564,15.87252 33.49114,28.94053 l 4.21412,9.32521 0.52153,84.34223 0.52152,84.34222 h -21.18775 -21.18775 l -0.52972,-9.61653 -0.52973,-9.61653 -9.49406,5.9963 c -15.03097,9.49331 -28.70542,13.49841 -48.79481,14.29147 -12.36768,0.48825 -20.56304,-0.11463 -27.33528,-2.01088 z m 69.72718,-38.10935 14.13064,-4.20955 0.49132,-25.37367 0.49132,-25.37367 -28.75259,1.20312 c -15.81393,0.66172 -32.76363,2.31812 -37.66601,3.68088 -13.65181,3.79494 -20.23287,12.50077 -20.22827,26.75918 0.004,12.0159 4.53705,20.0252 14.12789,24.96143 7.1404,3.67503 9.74421,4.01321 25.61177,3.32637 11.51728,-0.49853 22.58011,-2.22928 31.79393,-4.97409 z"
     id="path990" />
  <path
     style="fill:#ffffff;stroke-width:15.5187;stroke-linecap:square;paint-order:markers stroke fill"
     d="M 927.32291,321.29727 V 215.14284 l 52.5483,0.83125 c 41.03349,0.64909 55.02999,1.47159 63.87369,3.75349 47.5402,12.26669 72.5752,47.2707 72.5752,101.47477 0,33.28022 -9.5198,62.1449 -25.9187,78.58662 -22.3674,22.42595 -44.9689,27.62278 -120.24501,27.64825 l -42.83348,0.0145 z m 106.94009,66.62577 c 25.3165,-7.91042 37.9509,-34.54699 35.6555,-75.17062 -2.0379,-36.06399 -16.22,-54.45157 -46.2845,-60.0093 -5.7254,-1.05839 -19.802,-1.92435 -31.28131,-1.92435 h -20.87155 v 70.88962 70.88962 l 26.93652,-0.94565 c 17.05534,-0.59875 30.20454,-1.96679 35.84534,-3.72932 z"
     id="path1029" />
  <path
     style="fill:#ffffff;stroke-width:15.5187;stroke-linecap:square;paint-order:markers stroke fill"
     d="M 1153.4131,321.47194 V 215.49218 h 75.9521 75.9522 v 17.66329 17.6633 h -53.8731 -53.873 v 26.49494 26.49494 h 45.0414 45.0414 v 17.66329 17.66329 h -45.0414 -45.0414 v 26.49494 26.49494 h 53.873 53.8731 v 17.6633 17.66329 h -75.9522 -75.9521 z"
     id="path1068" />
  <path
     style="fill:#ffffff;stroke-width:15.5187;stroke-linecap:square;paint-order:markers stroke fill"
     d="m 1392.7507,426.86016 c -24.0051,-6.22907 -35.9148,-17.94241 -44.297,-43.56669 -2.8203,-8.62167 -3.2541,-18.60905 -3.856,-88.75805 l -0.6781,-79.04324 h 23.003 23.0029 l 0.5294,75.51058 c 0.5199,74.13987 0.6007,75.64382 4.4544,82.85052 5.2856,9.88445 11.1687,14.13861 22.9285,16.57992 12.596,2.61493 30.9436,0.0763 48.6798,-6.73564 l 12.7832,-4.90963 0.4593,-81.64787 0.4592,-81.64788 h 22.9446 22.9447 V 321.47194 427.4517 h -22.0792 -22.0791 v -9.88342 -9.88343 l -10.0556,5.67502 c -19.1445,10.80453 -31.5133,14.42123 -51.7659,15.13676 -11.6066,0.41005 -21.8512,-0.20228 -27.3781,-1.63647 z"
     id="path1107" />
  <path
     style="fill:#ffffff;stroke-width:15.5187;stroke-linecap:square;paint-order:markers stroke fill"
     d="m 1607.3597,428.25215 c -1.4572,-0.30584 -10.3993,-1.87681 -19.8712,-3.49103 l -17.2217,-2.93493 v -18.3832 c 0,-10.11075 0.3471,-18.38319 0.7713,-18.38319 0.4242,0 7.3791,1.62728 15.4553,3.61618 21.1406,5.20617 52.6184,6.27311 64.1005,2.17266 16.7254,-5.97295 22.0893,-22.62795 11.2598,-34.96204 -7.0065,-7.97996 -11.1722,-10.11683 -39.5895,-20.30796 -43.9939,-15.77731 -57.0334,-29.25677 -57.2175,-59.1481 -0.2472,-40.14177 39.8149,-65.7515 92.6534,-59.22886 8.7433,1.07932 20.4673,3.22808 26.0533,4.77503 l 10.1564,2.81263 v 18.50268 c 0,16.67528 -0.296,18.38908 -2.9972,17.35252 -12.7081,-4.87655 -33.3191,-8.69183 -47.3431,-8.76366 -24.4717,-0.12533 -34.4435,6.68146 -34.4435,23.5114 0,12.50549 8.2568,18.7705 39.7424,30.15558 32.1763,11.63478 49.22,23.21697 57.7657,39.25506 3.2965,6.18679 4.0386,10.33899 4.0378,22.59358 -7e-4,12.82952 -0.7138,16.46842 -4.9014,25.01218 -11.8229,24.12186 -39.596,36.98272 -78.9812,36.57379 -9.229,-0.0959 -17.9724,-0.42446 -19.4296,-0.73032 z"
     id="path1146" />
</svg>
